<?xml version="1.0" encoding="UTF-8"?>
<svg id="Layer_2" data-name="Layer 2" xmlns="http://www.w3.org/2000/svg" viewBox="0 0 294.24 101.32">
  <defs>
    <style>
      .cls-1 {
        fill: #f6ca89;
      }

      .cls-1, .cls-2, .cls-3, .cls-4, .cls-5, .cls-6 {
        stroke-width: 0px;
      }

      .cls-2 {
        fill: #19375b;
      }

      .cls-3 {
        fill: #d7d8da;
      }

      .cls-4 {
        fill: #a6c1bb;
      }

      .cls-5 {
        fill: #fff;
      }

      .cls-6 {
        fill: #e6725c;
      }
    </style>
  </defs>
  <g id="Layer_1-2" data-name="Layer 1">
    <g>
      <g>
        <path class="cls-5" d="M224.05,23.84c-.12-.87-1.77-1.78-3.22-2-4.26-.62-8.66-1.27-12.74.26-2.11.79-2.68,2.26-2.26,4.19s1.4,2.57,3.73,2.59c1.18.01,2.07.34,2.21,1.68.56,2.88.03,5.76.01,8.65,0,.96.04,1.91.15,2.86.2,1.74,1.15,2.77,2.56,2.86,2.14.14,3.17-.57,3.66-2.53.1-.39.54-3.82.56-4.2.11-2.76.09-5.5.21-8.27.05-1.13.69-1.43,1.59-1.51.84-.07,1.61-.26,2.43-.51.46-.14.92-.51,1.06-.93.29-.91.22-2.1.04-3.15ZM217.37,32.74c-.62,0-.56-.61-.54-1.03.02-.35-.13-.98.35-.99.63-.02.64.6.67,1.12-.05.36.07.91-.48.91ZM218.17,28.31c-.11.79-.08,1.69-1.13,2.03-.07-.21-.14-.34-.15-.47-.03-.75-.01-1.51.78-1.91.23-.12.54.02.5.34Z"/>
        <path class="cls-5" d="M255.32,44.8c-.32-.09-.62-.22-.89-.4-6.5-4.19-8.58-12.55-4.81-18.89,3.57-6,12.48-5.37,15.86-.51,3.56,5.11,3.53,10.35.88,15.64-1.72,3.44-4.64,4.52-8.42,4.59-.5,0-1-.04-1.48-.15-.36-.08-.78-.18-1.13-.28ZM257.95,28.83c-1-.09-1.8.22-2.42,1-1.53,1.94-1.21,5.43.69,7,1.12.93,2.31,1.08,3.59.21,2.17-1.48,2.36-5.72.3-7.46-.64-.54-1.34-.89-2.17-.75ZM258.85,22.12c-.25.11-.91-.24-1,.38-.12.81.61.57,1.06.65,2.28.4,4.14,1.44,5.37,3.48.58.95,1.03,1.95,1.33,3.02.1.35.28.71.71.61.48-.11.34-.54.31-.87-.34-3.38-4.3-7.14-7.78-7.27ZM267.13,31.93c-.04-.45.06-1.01-.58-1.05-.45-.03-.56.36-.55.74.02.5.02,1.14.62,1.22.53.06.42-.55.51-.9Z"/>
        <path class="cls-5" d="M294.24,36.72c-.12,1.1-.25,2.2-.37,3.3-.15,1.39-.56,2.67-1.48,3.74-1.31,1.54-3.41,1.58-4.75.07-1.08-1.23-1.75-2.69-2.3-4.22-.39-1.09-.82-2.16-1.28-3.23-.18-.41-.45-.87-1-.76-.62.12-.46.7-.47,1.12-.02,1.86.27,3.73-.12,5.58-.24,1.17-.53,2.32-1.93,2.56-1.55.27-2.66-.35-3.43-1.88-1.06-2.13-1.24-4.47-1.36-6.78-.17-3.07-.16-6.15.21-9.22.12-1.01.3-1.99.69-2.93.43-1.02.78-2.14,2.13-2.27,1.59-.15,3.01.12,3.89,1.66,1.04,1.81,1.64,3.78,2.26,5.76.24.76.22,2.14,1.18,2.01.98-.14.48-1.46.53-2.24.1-1.56-.06-3.13.26-4.68.26-1.26.58-2.51,2.17-2.73,1.74-.24,2.98.38,3.81,1.84,1,1.78,1.04,3.77,1.33,5.71,0,2.53.02,5.05.03,7.58ZM284.23,30.08c-.47-1.73-.99-3.51-1.91-5.14-.42-.74-.79-1.53-1.51-2.04-.32-.22-.72-.54-1.06-.12-.29.36.09.63.34.87,1,.92,1.48,2.13,1.93,3.36.42,1.13.81,2.27,1.22,3.39.11.3.31.55.66.49.43-.08.25-.47.32-.81ZM293.01,28.55c0-1.11-.28-2.18-.53-3.26-.22-.95-.65-1.79-1.35-2.47-.18-.18-.38-.37-.65-.25-.28.12-.32.43-.18.63,1.34,1.89,1.56,4.08,1.69,6.29.02.32.16.6.54.59.39-.01.46-.33.48-.64.02-.3,0-.6,0-.9ZM293.1,31.81c-.06-.39.02-.91-.53-.9-.55.02-.48.53-.48.91,0,.39.05.89.54.89.57,0,.38-.57.47-.9Z"/>
        <path class="cls-5" d="M192.81,21.8c.9.19,1.74.59,2.43,1.18,1.76,1.5,2.69,3.51,3.26,5.85.54,2.21,1.14,4.4,1.42,6.66.24,1.85.2,3.66,0,5.45-.12,1.21-.47,1.95-1.12,2.78-1.44,1.82-3.75,1.64-4.81-.41-.21-.4-.32-.84-.46-1.27-.31-.99-.59-1.84-1.98-1.83-1.36.02-2.17.41-2.5,1.8-.3,1.26-.95,2.38-2.29,2.8-2.02.63-3.48-.31-4.16-2.36-1.01-3.09-.32-6.08.18-9.13.53-3.21,1.29-6.3,3.28-8.98.58-.78,1.27-1.37,2.03-1.86,1-.64,2.18-.95,3.36-.86.45.03.9.1,1.35.19ZM193.17,33.63c-.03-1.19-.33-2.84-.63-3.4-.22-.41-.44-.82-.99-.82-.54,0-.8.4-.98.82-.46,1.08-.64,2.23-.79,3.38-.14,1.09.18,1.89,1.5,1.93,1.36.04,1.92-.5,1.89-1.91ZM192.47,22.77c-.32.11-.9-.25-.99.3-.08.52.49.56.86.61.75.11,1.24.59,1.75,1.08,1.35,1.29,2.03,2.95,2.65,4.66.13.36.24.9.77.71.49-.17.33-.69.21-1.05-.58-1.77-1.31-3.48-2.62-4.84-.71-.74-1.45-1.52-2.64-1.47ZM197.38,31.67c.09.45.03,1.09.73,1.08.53,0,.35-.51.32-.82-.05-.48.02-1.13-.68-1.13-.45,0-.37.5-.37.87Z"/>
        <path class="cls-5" d="M144.74,22.12c2.65,1.1,3.82,3.4,4.65,5.9,1.39,4.21,1.96,8.54,1.47,12.97-.19,1.69-.92,3.08-2.49,3.91-.45.23-.96.21-1.51.07-1.37-.42-1.98-1.44-2.27-2.76-.23-1.06-.53-1.96-2-1.98-1.48-.02-2.21.46-2.56,1.9-.33,1.37-1.1,2.51-2.67,2.75-2.28.35-3.62-.77-3.86-3.33-.36-3.9-.01-7.77.95-11.56.57-2.25,1.47-4.4,3.05-6.18.89-1,1.9-1.79,3.27-2,1.37-.18,2.67-.14,3.96.3ZM144.14,33.18c-.07-.88-.15-1.94-.57-2.93-.18-.44-.42-.8-.97-.81-.55,0-.81.32-.99.77-.52,1.27-.8,2.6-.81,3.97,0,.85.45,1.26,1.31,1.33,1.56.14,2.11-.42,2.03-2.34ZM142.37,22.88c.08.26.08.38.15.43.15.12.33.25.51.3,1.82.53,2.97,1.8,3.75,3.44.37.77.66,1.57.96,2.36.15.4.33.85.78.76.62-.13.25-.61.18-.97-.41-2.14-1.57-3.83-3.04-5.4-.95-1.02-1.97-1.19-3.29-.93ZM148.39,31.76c.17.28-.01.97.69,1,.6.02.51-.51.46-.87-.06-.47-.09-1.08-.76-1.06-.44.01-.42.46-.39.94Z"/>
        <path class="cls-5" d="M110.18,21.52c2.46-.13,3.48.6,4.13,3.58.71,3.24.99,6.57,1.5,9.86.14.9.09,2.39.97,2.41.89.02.95-1.5,1.16-2.38.68-2.99,1.23-6.02,1.87-9.02.19-.88.41-1.77.73-2.61.56-1.49,1.69-1.98,3.25-1.8,1.53.18,2.11,1.18,2.16,2.47.23,6.22-.37,12.28-3.99,17.64-1.14,1.69-2.78,2.77-4.66,3.42-1.53.53-2.81-.28-4.01-1.11-1.14-.79-1.95-1.89-2.54-3.14-2.24-4.74-3.1-9.76-2.98-14.96.04-1.7.43-4.36,2.41-4.35ZM113.91,28.82c-.24-1.3-.47-2.78-.79-4.25-.17-.8-.69-1.44-1.35-1.9-.29-.2-.71-.21-.97.09-.37.41.03.66.31.8.84.42,1.03,1.2,1.17,1.99.21,1.19.34,2.38.49,3.58.06.49.02,1.17.73,1.05.6-.1.27-.75.4-1.35ZM125.03,26.14c-.1-1.29.16-2.58-1.04-3.4-.28-.19-.66-.39-.94-.01-.22.29-.05.63.18.8,1.06.83.84,1.97.76,3.05-.07.95-.24,1.89-.32,2.84-.03.38.14.72.6.7.38-.01.45-.33.47-.65.1-1.15.21-2.3.3-3.35ZM114.16,31.9c-.09-.36.09-.96-.53-1.03-.54-.06-.65.41-.58.83.07.41,0,1.01.57,1.09.63.09.47-.48.54-.89ZM123.43,32.03c.06.37-.04.98.51.86.58-.12.47-.8.52-1.28.04-.36,0-.84-.44-.79-.66.08-.52.74-.59,1.21Z"/>
        <path class="cls-5" d="M173.3,36.8c.82-.05,1.55.49,1.78,1.28.86,2.89-.95,5.88-4.34,6.81-3.8,1.05-8.36-1.09-10.61-4.67-2.62-4.18-2.94-12.93,1.94-17.36,1.42-1.2,3.09-1.85,5.03-1.88.72-.05,3.4.36,4.61.89,1.68.91,2.71,2.19,2.46,4.24-.24,2-1.35,2.74-3.22,2.11-.52-.18-1.04-.4-1.58-.51-1.53-.32-2.89.21-3.56,1.62-1.11,2.32-1.37,4.74-.19,7.13,1.15,2.34,2.68,2.78,4.91,1.5.23-.13.45-.28.67-.43.45-.3.94-.52,1.47-.64.21-.05.42-.08.63-.09ZM172.53,26.99c.62-.23.71-.76.7-1.34-.02-2.19-3.57-4.41-5.56-3.47-.12.06-.25.17-.3.29-.09.22.08.42.26.47.44.11.89.14,1.34.22,2.21.36,2.84,1,3.19,3.22.04.24.08.5.38.61ZM174.28,38.8c-.13-.58-.4-1.17-1.13-1.13-.6.04-1.44.46-1.27,1.02.23.77,1.46.02,2.02.79.13.18.37-.32.38-.69Z"/>
        <path class="cls-5" d="M235.46,21.02c.36-.13.75-.08,1.13-.08.2,0,.41-.01.6.04,1.51.43,2.23,1.86,2.41,3.42.68,5.87.8,11.75,0,17.62-.25,1.83-1.08,2.75-2.39,2.87-1.84.17-2.95-.5-3.66-2.24s-.82-3.53-.97-5.33c-.08-.95-.02-1.87-.16-2.86-.2-1.41-.09-2.84-.02-4.27s.08-2.93.23-4.4c.13-1.28.32-2.68,1.22-3.64.45-.48.99-.92,1.6-1.13ZM239.05,28.25c-.1-1.77-.24-3.47-1-5.04-.17-.34-.45-.84-.88-.66-.52.21-.16.68-.03,1.02.57,1.48.68,3.02.77,4.58.04.66-.42,1.84.63,1.82.9-.02.32-1.16.52-1.72ZM239.07,31.91c-.03-.37.16-.89-.41-.96-.55-.06-.58.43-.6.82-.02.4-.02.9.46.97.61.09.44-.5.55-.84Z"/>
        <path class="cls-5" d="M182.65,76.89c-1.04-.79-1.77-1.81-2.23-3.04-2.01-5.37-2.51-10.87-1.34-16.5.23-1.12.62-2.18,1.38-3.04.31-.35.75-.58,1.22-.61.2-.01.4,0,.6.02.62.09,1.14.53,1.37,1.11.82,1.99.66,4.15.83,6.25.09,1.1-.01,2.22.26,3.31.16.63.4,1.21,1.12,1.24.74.03.84-.65.97-1.16.31-1.17.5-2.37.82-3.53.18-.67.41-1.36.77-1.95.99-1.62,2.54-1.6,3.39.1.58,1.16.9,2.45,1.36,3.68.19.51.31,1.19,1.01,1.15.68-.03.82-.7.92-1.23.33-1.68.59-3.37.88-5.06.18-1,.46-1.97,1.06-2.8.47-.66,1.01-1.34,1.96-1.16.93.17,1.63.65,1.97,1.61,1.09,3.11,1.22,6.31.98,9.55-.08,1.12-.2,2.25-.31,3.37,0,.06-.01.11-.02.17-.1.53-.28,1.23-.29,1.29-.66,2.78-.88,4.41-2.71,6.73-.19.24-.46.42-.75.51-.02,0-.05.01-.07.02-.04.01-.08.02-.12.02-2.46.28-3.56-.35-4.54-2.65-.53-1.25-.95-2.54-1.49-3.78-.27-.62-.8-1.09-1.51-1.1-.68,0-.84.67-1.06,1.14-.35.72-.57,1.5-.88,2.24-.72,1.71-1.51,3.37-3.34,4.19l-.36.08c-.41.02-.81.03-1.22.05l-.65-.2ZM201.13,61.1c-.17-1.98-.41-3.87-1.16-5.65-.16-.39-.35-.99-.91-.74-.45.2-.17.7-.05,1.07.54,1.73.98,3.47,1.02,5.3,0,.45-.19,1.17.59,1.14.76-.03.45-.74.51-1.11ZM183.34,60.12c-.16-1.31-.21-3.01-.62-4.67-.1-.42-.18-.88-.69-.76-.45.11-.28.57-.2.89.45,1.77.44,3.58.58,5.38.03.46-.17,1.22.52,1.21.72-.02.37-.78.45-1.23.02-.15-.01-.3-.04-.82ZM189.79,59.44c.45.91.86,1.77,1.3,2.62.09.17.3.34.5.19.13-.1.24-.33.24-.5.01-1.15-.67-1.97-1.41-2.74-.08-.08-.34-.12-.39-.06-.12.13-.17.33-.25.49ZM201.03,63.88c-.04-.4.05-.92-.51-.9-.66.02-.5.61-.51,1.02-.01.38-.04.9.5.89.67-.02.41-.64.52-1ZM182.67,63.81c.05.38-.03.92.46.96.55.04.5-.48.48-.87-.02-.39,0-.88-.54-.88-.5,0-.36.48-.41.8Z"/>
        <path class="cls-5" d="M163.61,53.61c6.02,2.07,7.63,7.33,7.59,11.96,0,.65-.03,1.31-.05,1.96-.05.61-.16,1.35-.3,1.88-.65,2.25-1.67,4.28-3.38,5.92-.19.14-.39.28-.58.42-5.69,2.88-11.08.32-13.57-2.65-.38-.47-1.3-1.95-1.49-2.53-.79-2.58-1.06-5.19-.76-7.9.47-4.12,2.29-7.24,6.19-8.96,1.91-.83,4.69-.58,6.35-.1ZM164.57,65.35c.02-2.48-1.27-4.27-3.19-4.43-2.42-.2-3.8,1.34-3.83,4.26-.02,2.39,1.73,4.51,3.75,4.52,1.83.01,3.24-1.88,3.26-4.36ZM161.95,54.24c-.38.06-1.03-.25-1.12.36-.13.81.65.53,1.07.64.48.13.99.2,1.46.36,2.85.96,4.36,3.09,5.17,5.85.12.42.24.97.84.83.43-.11.31-.58.27-.92-.34-3.32-4.29-6.99-7.69-7.12ZM170.07,64.07c-.15-.4.16-1.12-.56-1.15-.47-.02-.5.53-.48.93.03.44,0,.98.61,1.01.52.03.37-.46.42-.79Z"/>
        <path class="cls-5" d="M108.43,62.12c-.03-.95.06-1.9.25-2.84.16-.77.33-1.55.54-2.31.38-1.37,1.14-2.05,2.36-2.73.84-.44,2.5-.46,3.35-.53,1.74-.15,3.41.12,5.07.51,1.02.24,1.93.86,2.48,1.76.92,1.52.65,3.13-.86,4.12-.83.54-1.81.4-2.73.53-.83.12-1.66.2-2.5.23-.97.04-1.56.52-1.53,1.46.04.88.46,1.57,1.45,1.63.7.04,1.41.03,2.12.03,2.38.01,2.68.29,2.75,2.57.01.35-.02.7-.03,1.04-.07,1.38-2.92,1-3.67.95-1.85-.12-2.34.34-2.46,2.17-.08,1.2-.12,2.41-.25,3.6-.15,1.46-.91,2.44-2.45,2.61-1.56.17-2.44-.77-2.98-2.05-.59-1.39-.72-2.89-.89-4.37-.05-.39-.07-.78-.08-1.17-.04-2.07.08-6.35.06-7.21ZM115.04,54.63c-.15.04-.76-.3-.84.4-.09.81.57.61,1.04.67,2.06.27,4.4-.51,6,1.58.14.18.44.28.65,0,.18-.24.07-.45-.07-.68-.64-1.05-1.55-1.68-2.79-1.76-1.25-.09-2.5-.13-4-.21ZM118.65,64.93c-.43-.03-1.03-.07-.93.45.21,1,1.43.65,2.03,1.24.25.25.51-.14.49-.48-.05-1.06-.94-1.01-1.6-1.21Z"/>
        <path class="cls-5" d="M136.44,55.19c.47,1.12.44,2.34.47,3.52.07,2.49.12,4.99.08,7.48-.05,3.02.38,3.89,3.13,3.96.6.01,1.38.03,1.98.05,1.38.05,2.34.68,2.61,2.05.29,1.46-.13,2.84-1.5,3.48-2.91,1.36-6.01,1.65-9.13.87-1.86-.46-2.62-2.07-3.15-3.76-.11-.34-.31-1.53-.46-2.44-.11-.69-.18-1.39-.2-2.09l-.04-1.63.07-3.81c.04-.6.08-2.34.11-3.62.03-1.09.21-2.18.56-3.21.19-.55.4-1.07.59-1.34.46-.65,1.21-1.03,2.01-1.06s1.51.03,2.15.54c.33.26.56.62.72,1ZM134.83,59.54c0,.7,0,1.4,0,2.1,0,.27.16.48.45.51.28.03.54-.13.54-.4.03-2.19.3-4.41-.66-6.5-.14-.32-.4-.71-.78-.56-.52.2-.26.67-.12,1.02.52,1.23.57,2.53.56,3.83ZM135.99,63.87c-.01-.39.04-.88-.53-.87-.54.01-.52.53-.54.9-.02.37-.03.89.53.87.52-.02.5-.51.54-.91Z"/>
      </g>
      <g>
        <path class="cls-4" d="M201.13,61.1c-.06.37.25,1.08-.51,1.11-.78.03-.58-.69-.59-1.14-.03-1.83-.48-3.57-1.02-5.3-.12-.37-.4-.87.05-1.07.56-.24.74.36.91.74.74,1.78.99,3.67,1.16,5.65Z"/>
        <path class="cls-4" d="M183.34,60.12c.03.52.06.68.04.82-.07.45.28,1.21-.45,1.23-.69.02-.49-.75-.52-1.21-.14-1.8-.13-3.61-.58-5.38-.08-.32-.26-.79.2-.89.52-.12.59.35.69.76.4,1.66.46,3.36.62,4.67Z"/>
        <path class="cls-4" d="M189.79,59.44c.08-.16.12-.36.25-.49.06-.06.31-.02.39.06.74.77,1.42,1.59,1.41,2.74,0,.17-.11.4-.24.5-.2.15-.41-.03-.5-.19-.44-.85-.85-1.71-1.3-2.62Z"/>
        <path class="cls-4" d="M201.03,63.88c-.11.36.15.98-.52,1-.55.01-.51-.51-.5-.89.01-.41-.14-1,.51-1.02.57-.02.47.5.51.9Z"/>
        <path class="cls-4" d="M182.67,63.81c.05-.32-.09-.79.41-.79.53,0,.52.49.54.88.02.39.07.91-.48.87-.49-.04-.41-.58-.46-.96Z"/>
        <g>
          <path class="cls-4" d="M161.95,54.24c3.4.13,7.35,3.8,7.69,7.12.03.34.16.81-.27.92-.6.15-.72-.41-.84-.83-.81-2.76-2.32-4.9-5.17-5.85-.47-.16-.98-.23-1.46-.36-.42-.12-1.2.16-1.07-.64.1-.61.75-.3,1.12-.36Z"/>
          <path class="cls-4" d="M170.07,64.07c-.05.33.1.82-.42.79-.61-.03-.58-.57-.61-1.01-.02-.41,0-.95.48-.93.72.03.41.75.56,1.15Z"/>
          <path class="cls-4" d="M115.04,54.63c1.49.08,2.74.13,4,.21,1.24.08,2.15.71,2.79,1.76.14.23.24.44.07.68-.21.28-.51.18-.65,0-1.6-2.09-3.94-1.3-6-1.58-.47-.06-1.13.13-1.04-.67.08-.7.69-.36.84-.4Z"/>
          <path class="cls-4" d="M118.65,64.93c.66.21,1.55.16,1.6,1.21.02.34-.24.73-.49.48-.6-.6-1.83-.24-2.03-1.24-.11-.51.5-.48.93-.45Z"/>
          <path class="cls-4" d="M134.83,59.54c.01-1.31-.04-2.6-.56-3.83-.15-.35-.4-.82.12-1.02.38-.15.63.24.78.56.96,2.09.69,4.31.66,6.5,0,.27-.26.42-.54.4-.29-.03-.44-.23-.45-.51-.01-.7,0-1.4,0-2.1Z"/>
          <path class="cls-4" d="M135.99,63.87c-.03.39-.02.88-.54.9-.56.02-.55-.5-.53-.87.02-.37,0-.89.54-.9.56-.01.52.48.53.87Z"/>
          <g>
            <path class="cls-4" d="M113.91,28.82c-.13.61.2,1.26-.4,1.35-.71.12-.67-.56-.73-1.05-.16-1.19-.29-2.39-.49-3.58-.14-.79-.33-1.57-1.17-1.99-.28-.14-.69-.39-.31-.8.26-.29.68-.29.97-.09.67.47,1.18,1.11,1.35,1.9.32,1.47.55,2.95.79,4.25Z"/>
            <path class="cls-4" d="M125.03,26.14c-.09,1.04-.2,2.19-.3,3.35-.03.31-.09.63-.47.65-.45.01-.63-.32-.6-.7.08-.95.26-1.89.32-2.84.08-1.09.3-2.22-.76-3.05-.23-.18-.4-.52-.18-.8.29-.37.66-.18.94.01,1.2.82.94,2.11,1.04,3.4Z"/>
            <path class="cls-4" d="M114.16,31.9c-.07.41.09.98-.54.89-.58-.08-.5-.68-.57-1.09-.07-.42.05-.89.58-.83.62.07.44.67.53,1.03Z"/>
            <path class="cls-4" d="M123.43,32.03c.08-.48-.06-1.13.59-1.21.43-.06.49.43.44.79-.06.48.06,1.16-.52,1.28-.56.12-.46-.49-.51-.86Z"/>
            <g>
              <path class="cls-4" d="M192.47,22.67c1.2-.05,1.93.73,2.64,1.47,1.31,1.36,2.04,3.07,2.62,4.84.12.36.27.88-.21,1.05-.53.19-.64-.35-.77-.71-.62-1.7-1.3-3.37-2.65-4.66-.51-.49-1-.98-1.75-1.08-.38-.05-.94-.09-.86-.61.09-.55.66-.19.99-.3Z"/>
              <path class="cls-4" d="M197.38,31.67c0-.37-.08-.87.37-.87.7,0,.64.65.68,1.13.03.31.2.82-.32.82-.7.01-.64-.63-.73-1.08Z"/>
              <path class="cls-4" d="M142.37,22.88c1.32-.26,2.34-.09,3.29.93,1.46,1.58,2.63,3.26,3.04,5.4.07.36.44.84-.18.97-.45.09-.63-.36-.78-.76-.3-.8-.59-1.6-.96-2.36-.78-1.64-1.93-2.91-3.75-3.44-.19-.05-.36-.18-.51-.3-.06-.05-.06-.18-.15-.43Z"/>
              <path class="cls-4" d="M148.39,31.76c-.03-.48-.05-.93.39-.94.67-.02.69.59.76,1.06.05.37.14.89-.46.87-.7-.02-.52-.71-.69-1Z"/>
              <path class="cls-4" d="M172.53,26.99c-.3-.12-.34-.37-.38-.61-.35-2.22-.98-2.86-3.19-3.22-.45-.07-.9-.11-1.34-.22-.18-.04-.34-.24-.26-.47.05-.12.18-.23.3-.29,1.99-.94,5.54,1.27,5.56,3.47,0,.58-.08,1.1-.7,1.34Z"/>
              <path class="cls-4" d="M174.28,38.8c0,.37-.25.87-.38.69-.56-.77-1.79-.02-2.02-.79-.17-.56.67-.98,1.27-1.02.72-.04,1,.55,1.13,1.13Z"/>
              <g>
                <path class="cls-4" d="M222.68,22.69c.74,1.02,1.12,2.39.36,3.69-.25.42-.53,1.08-1.11.85-.57-.22-.18-.77-.04-1.18.25-.73.3-1.45-.2-2.12-.3-.41-.74-.89-.33-1.37.43-.51,1.13-.13,1.33.14Z"/>
                <path class="cls-4" d="M258.85,22.02c3.48.13,7.44,3.89,7.78,7.27.03.33.17.76-.31.87-.44.1-.62-.27-.71-.61-.3-1.07-.75-2.06-1.33-3.02-1.24-2.04-3.09-3.08-5.37-3.48-.45-.08-1.18.17-1.06-.65.09-.63.75-.28,1-.38Z"/>
                <path class="cls-4" d="M267.13,31.82c-.09.35.02.96-.51.9-.6-.07-.6-.72-.62-1.22-.02-.38.09-.77.55-.74.64.05.54.6.58,1.05Z"/>
                <path class="cls-4" d="M284.23,29.98c-.07.34.11.73-.32.81-.35.07-.55-.19-.66-.49-.41-1.13-.81-2.27-1.22-3.39-.45-1.23-.94-2.44-1.93-3.36-.25-.23-.63-.51-.34-.87.34-.42.74-.1,1.06.12.72.51,1.09,1.29,1.51,2.04.93,1.63,1.44,3.41,1.91,5.14Z"/>
                <path class="cls-4" d="M293.02,28.45c0,.3.01.6,0,.9-.02.31-.08.63-.48.64-.38.01-.52-.27-.54-.59-.13-2.21-.35-4.4-1.69-6.29-.14-.2-.1-.51.18-.63.27-.12.47.07.65.25.7.69,1.13,1.53,1.35,2.47.25,1.07.53,2.14.53,3.26Z"/>
                <path class="cls-4" d="M293.1,31.71c-.09.33.1.9-.47.9-.5,0-.54-.49-.54-.89,0-.38-.07-.89.48-.91.56-.02.48.51.53.9Z"/>
                <path class="cls-4" d="M217.04,30.24c-.07-.21-.14-.34-.15-.47-.03-.75-.01-1.51.78-1.91.23-.12.54.02.5.34-.11.79-.08,1.69-1.13,2.03Z"/>
                <path class="cls-4" d="M217.85,31.74c-.05.36.07.91-.48.91-.62,0-.56-.61-.54-1.03.02-.35-.13-.98.35-.99.63-.02.64.6.67,1.12Z"/>
                <path class="cls-4" d="M239.05,28.15c-.19.56.38,1.71-.52,1.72-1.05.02-.59-1.16-.63-1.82-.09-1.56-.2-3.1-.77-4.58-.13-.34-.49-.81.03-1.02.44-.18.72.32.88.66.77,1.57.9,3.27,1,5.04Z"/>
                <path class="cls-4" d="M239.07,31.81c-.11.33.06.92-.55.84-.48-.07-.48-.57-.46-.97.02-.4.04-.89.6-.82.57.07.38.58.41.96Z"/>
              </g>
            </g>
          </g>
        </g>
      </g>
    </g>
    <g>
      <path class="cls-6" d="M112.89,90.17h-1.54v2.35c0,.34-.08.59-.24.76s-.36.26-.6.26-.46-.09-.61-.26-.23-.42-.23-.76v-6.4c0-.37.09-.63.26-.79.17-.16.44-.24.81-.24h2.16c.64,0,1.13.05,1.47.15.34.09.63.25.88.47.25.22.44.49.56.8s.19.67.19,1.07c0,.85-.26,1.49-.78,1.92-.52.44-1.3.65-2.33.65ZM112.48,86.36h-1.13v2.54h1.13c.4,0,.73-.04.99-.12.27-.08.47-.22.61-.41.14-.19.21-.44.21-.74,0-.37-.11-.66-.32-.89-.24-.25-.74-.37-1.49-.37Z"/>
      <path class="cls-6" d="M117.3,92.61v-6.71c0-.31.07-.54.21-.7.14-.16.32-.24.56-.24s.42.08.57.24c.14.16.22.39.22.71v6.71c0,.31-.07.55-.22.71-.15.16-.33.24-.56.24s-.41-.08-.55-.24c-.14-.16-.21-.4-.21-.7Z"/>
      <path class="cls-6" d="M124.35,92.67c-.37.29-.74.51-1.08.65-.35.15-.74.22-1.18.22-.4,0-.75-.08-1.05-.24-.3-.16-.53-.37-.69-.64-.16-.27-.24-.56-.24-.87,0-.42.13-.78.4-1.08.27-.3.64-.5,1.1-.6.1-.02.34-.07.73-.15.39-.08.72-.15,1-.22.28-.07.58-.15.9-.24-.02-.41-.1-.71-.25-.9-.15-.19-.45-.29-.9-.29-.39,0-.69.05-.89.16-.2.11-.37.27-.51.49s-.24.36-.3.43c-.06.07-.18.1-.38.1-.17,0-.32-.06-.45-.17-.13-.11-.19-.25-.19-.43,0-.27.1-.54.29-.79.19-.26.49-.47.9-.63.41-.17.92-.25,1.52-.25.68,0,1.21.08,1.6.24.39.16.66.42.82.76.16.35.24.81.24,1.38,0,.36,0,.67,0,.92s0,.53,0,.84c0,.29.05.59.14.91.1.32.14.52.14.61,0,.16-.07.3-.22.43-.15.13-.32.2-.51.2-.16,0-.32-.07-.47-.22-.16-.15-.32-.37-.49-.65ZM124.25,90.44c-.23.08-.56.17-.99.26-.43.09-.73.16-.9.2-.17.04-.32.13-.48.25-.15.13-.23.3-.23.53s.09.43.27.6.41.25.7.25c.31,0,.59-.07.85-.2.26-.13.45-.31.57-.52.14-.23.21-.62.21-1.16v-.22Z"/>
      <path class="cls-6" d="M128.74,88.11v.19c.27-.36.57-.62.89-.79.32-.17.69-.25,1.11-.25s.77.09,1.09.27c.32.18.56.43.72.75.1.19.17.39.2.61.03.22.05.5.05.84v2.88c0,.31-.07.54-.21.7-.14.16-.33.24-.55.24s-.42-.08-.56-.24c-.14-.16-.22-.4-.22-.7v-2.58c0-.51-.07-.9-.21-1.17-.14-.27-.42-.41-.85-.41-.28,0-.53.08-.75.25s-.39.39-.5.68c-.08.23-.11.66-.11,1.29v1.94c0,.31-.07.55-.22.71-.15.16-.33.24-.56.24s-.41-.08-.55-.24c-.14-.16-.22-.4-.22-.7v-4.47c0-.29.06-.51.19-.66s.3-.22.53-.22c.14,0,.26.03.37.1s.2.16.26.29c.07.13.1.29.1.47Z"/>
      <path class="cls-6" d="M142.23,91.52c0,.43-.1.79-.31,1.1-.21.3-.51.54-.92.69-.41.16-.9.24-1.48.24s-1.03-.08-1.43-.25-.69-.38-.88-.64-.28-.51-.28-.77c0-.17.06-.32.18-.44.12-.12.27-.18.46-.18.16,0,.29.04.37.12.09.08.17.19.25.33.16.28.35.48.57.62.22.14.52.2.9.2.31,0,.56-.07.76-.21.2-.14.3-.29.3-.47,0-.27-.1-.47-.31-.59-.21-.12-.54-.24-1.02-.36-.53-.13-.97-.27-1.3-.42-.33-.15-.6-.34-.8-.58s-.3-.53-.3-.88c0-.31.09-.6.28-.88.19-.28.46-.5.82-.66.36-.17.8-.25,1.31-.25.4,0,.76.04,1.08.12s.59.19.8.33.38.29.49.46.17.34.17.5c0,.18-.06.32-.18.44-.12.11-.29.17-.51.17-.16,0-.29-.04-.4-.14-.11-.09-.24-.23-.38-.41-.12-.15-.25-.27-.41-.36s-.37-.14-.65-.14-.51.06-.7.18c-.19.12-.28.27-.28.44,0,.16.07.3.2.4.14.1.32.19.55.26s.55.15.95.25c.48.12.87.26,1.18.42.3.16.53.35.69.57.16.22.23.47.23.76Z"/>
      <path class="cls-6" d="M148.68,90.52v2.06c0,.33-.07.57-.22.73-.15.16-.34.24-.58.24s-.42-.08-.57-.24c-.15-.16-.22-.41-.22-.73v-2.46c0-.39-.01-.69-.04-.91-.03-.21-.1-.39-.22-.53s-.3-.21-.56-.21c-.51,0-.84.17-1,.52s-.24.85-.24,1.5v2.09c0,.32-.07.56-.22.73-.15.16-.34.25-.58.25s-.43-.08-.57-.25c-.15-.17-.22-.41-.22-.73v-4.42c0-.29.07-.51.2-.66.13-.15.31-.23.53-.23s.39.07.53.21.21.34.21.59v.15c.27-.32.56-.56.86-.71.31-.15.65-.23,1.02-.23s.72.08,1,.23c.28.15.51.39.69.7.26-.32.54-.55.84-.71s.63-.23.99-.23c.42,0,.79.08,1.09.25.31.17.53.4.69.71.13.28.2.72.2,1.32v3.02c0,.33-.07.57-.22.73-.15.16-.34.24-.58.24s-.43-.08-.57-.25c-.15-.17-.22-.41-.22-.73v-2.6c0-.33-.01-.6-.04-.8s-.1-.37-.23-.5c-.12-.14-.31-.2-.57-.2-.2,0-.4.06-.58.18-.18.12-.33.28-.43.49-.11.26-.17.72-.17,1.38Z"/>
      <path class="cls-6" d="M157.71,92.67c-.37.29-.74.51-1.08.65-.35.15-.74.22-1.18.22-.4,0-.75-.08-1.05-.24-.3-.16-.53-.37-.69-.64-.16-.27-.24-.56-.24-.87,0-.42.13-.78.4-1.08.27-.3.64-.5,1.1-.6.1-.02.34-.07.73-.15.39-.08.72-.15,1-.22.28-.07.58-.15.9-.24-.02-.41-.1-.71-.25-.9-.15-.19-.45-.29-.9-.29-.39,0-.69.05-.89.16-.2.11-.37.27-.51.49s-.24.36-.3.43c-.06.07-.18.1-.38.1-.17,0-.32-.06-.45-.17-.13-.11-.19-.25-.19-.43,0-.27.1-.54.29-.79.19-.26.49-.47.9-.63.41-.17.92-.25,1.52-.25.68,0,1.21.08,1.6.24.39.16.66.42.82.76.16.35.24.81.24,1.38,0,.36,0,.67,0,.92s0,.53,0,.84c0,.29.05.59.14.91.1.32.14.52.14.61,0,.16-.07.3-.22.43-.15.13-.32.2-.51.2-.16,0-.32-.07-.47-.22-.16-.15-.32-.37-.49-.65ZM157.61,90.44c-.23.08-.56.17-.99.26-.43.09-.73.16-.9.2-.17.04-.32.13-.48.25-.15.13-.23.3-.23.53s.09.43.27.6.41.25.7.25c.31,0,.59-.07.85-.2.26-.13.45-.31.57-.52.14-.23.21-.62.21-1.16v-.22Z"/>
      <path class="cls-6" d="M162.23,91.31v1.29c0,.31-.07.55-.22.71-.15.16-.33.24-.56.24s-.41-.08-.55-.24c-.14-.16-.22-.39-.22-.7v-4.31c0-.7.25-1.04.75-1.04.26,0,.44.08.56.24s.18.4.19.72c.19-.32.38-.56.57-.72s.45-.24.78-.24.64.08.95.24c.31.16.46.38.46.65,0,.19-.06.34-.2.47s-.27.18-.42.18c-.06,0-.19-.03-.41-.1-.22-.07-.41-.1-.58-.1-.23,0-.41.06-.56.18-.14.12-.25.3-.33.53-.08.23-.13.51-.16.84-.03.32-.05.72-.05,1.18Z"/>
      <path class="cls-6" d="M166.01,87.39h.17v-.93c0-.25,0-.44.02-.59s.05-.26.11-.37c.06-.11.15-.19.26-.26.11-.07.24-.1.38-.1.2,0,.37.07.53.22.11.1.17.22.2.36s.04.34.04.6v1.05h.57c.22,0,.39.05.5.16.12.1.17.24.17.4,0,.21-.08.35-.25.44-.16.08-.4.12-.71.12h-.29v2.84c0,.24,0,.43.03.56.02.13.06.24.14.32.07.08.19.12.36.12.09,0,.21-.02.37-.05.16-.03.28-.05.36-.05.12,0,.24.05.34.15.1.1.15.22.15.37,0,.25-.14.44-.41.57-.27.13-.66.2-1.17.2s-.85-.08-1.1-.24c-.25-.16-.41-.39-.49-.67-.08-.29-.12-.67-.12-1.15v-2.97h-.2c-.22,0-.39-.05-.51-.16s-.18-.24-.18-.4.06-.29.18-.4c.12-.1.3-.16.54-.16Z"/>
      <path class="cls-6" d="M171.05,93.55c-.23,0-.44-.08-.61-.23s-.25-.36-.25-.63c0-.23.08-.43.24-.59.16-.17.36-.25.6-.25s.44.08.61.25c.17.16.25.36.25.6,0,.27-.08.48-.25.63-.17.15-.37.23-.59.23Z"/>
      <path class="cls-6" d="M182.06,86.49h-1.84v6.03c0,.35-.08.61-.23.77-.15.17-.35.25-.6.25s-.45-.08-.61-.25-.23-.43-.23-.77v-6.03h-1.84c-.29,0-.5-.06-.64-.19s-.21-.29-.21-.5.07-.39.22-.51c.15-.12.36-.19.63-.19h5.35c.29,0,.51.06.65.19.14.13.21.3.21.5s-.07.37-.22.5-.36.19-.65.19Z"/>
      <path class="cls-6" d="M184.91,91.31v1.29c0,.31-.07.55-.22.71-.15.16-.33.24-.56.24s-.41-.08-.55-.24c-.14-.16-.22-.39-.22-.7v-4.31c0-.7.25-1.04.75-1.04.26,0,.44.08.56.24s.18.4.19.72c.19-.32.38-.56.57-.72s.45-.24.78-.24.64.08.95.24c.31.16.46.38.46.65,0,.19-.06.34-.2.47s-.27.18-.42.18c-.06,0-.19-.03-.41-.1-.22-.07-.41-.1-.58-.1-.23,0-.41.06-.56.18-.14.12-.25.3-.33.53-.08.23-.13.51-.16.84-.03.32-.05.72-.05,1.18Z"/>
      <path class="cls-6" d="M192.07,92.67c-.37.29-.74.51-1.08.65-.35.15-.74.22-1.18.22-.4,0-.75-.08-1.05-.24-.3-.16-.53-.37-.69-.64-.16-.27-.24-.56-.24-.87,0-.42.13-.78.4-1.08.27-.3.64-.5,1.1-.6.1-.02.34-.07.73-.15.39-.08.72-.15,1-.22.28-.07.58-.15.9-.24-.02-.41-.1-.71-.25-.9-.15-.19-.45-.29-.9-.29-.39,0-.69.05-.89.16-.2.11-.37.27-.51.49s-.24.36-.3.43c-.06.07-.18.1-.38.1-.17,0-.32-.06-.45-.17-.13-.11-.19-.25-.19-.43,0-.27.1-.54.29-.79.19-.26.49-.47.9-.63.41-.17.92-.25,1.52-.25.68,0,1.21.08,1.6.24.39.16.66.42.82.76.16.35.24.81.24,1.38,0,.36,0,.67,0,.92s0,.53,0,.84c0,.29.05.59.14.91.1.32.14.52.14.61,0,.16-.07.3-.22.43-.15.13-.32.2-.51.2-.16,0-.32-.07-.47-.22-.16-.15-.32-.37-.49-.65ZM191.97,90.44c-.23.08-.56.17-.99.26-.43.09-.73.16-.9.2-.17.04-.32.13-.48.25-.15.13-.23.3-.23.53s.09.43.27.6.41.25.7.25c.31,0,.59-.07.85-.2.26-.13.45-.31.57-.52.14-.23.21-.62.21-1.16v-.22Z"/>
      <path class="cls-6" d="M195.86,88.22l1.25,3.51,1.35-3.67c.11-.29.21-.5.31-.63.1-.12.26-.18.46-.18.2,0,.36.07.5.2.14.13.21.29.21.46,0,.07-.01.15-.04.24-.02.09-.05.18-.08.25-.03.08-.07.17-.11.27l-1.48,3.68c-.04.11-.1.24-.16.4-.07.16-.14.3-.22.42-.08.12-.18.21-.3.27-.12.06-.26.1-.43.1-.22,0-.39-.05-.52-.15-.13-.1-.23-.21-.29-.33-.06-.12-.17-.35-.31-.71l-1.47-3.64c-.03-.09-.07-.18-.1-.27-.04-.09-.07-.18-.09-.28-.02-.09-.04-.17-.04-.24,0-.11.03-.21.1-.31.06-.1.15-.19.27-.25s.24-.1.37-.1c.26,0,.43.07.53.22.1.15.2.39.32.74Z"/>
      <path class="cls-6" d="M205.22,90.78h-3.03c0,.35.07.66.21.93.14.27.32.47.55.61s.48.2.76.2c.19,0,.35-.02.51-.07.15-.04.3-.11.44-.2.14-.09.28-.19.4-.3.12-.11.28-.25.47-.43.08-.07.19-.1.34-.1.16,0,.29.04.39.13s.15.21.15.37c0,.14-.06.3-.16.49-.11.19-.27.37-.5.54-.22.17-.5.31-.83.43-.33.11-.72.17-1.15.17-.99,0-1.77-.28-2.32-.85-.55-.57-.83-1.33-.83-2.31,0-.46.07-.88.2-1.27s.33-.73.59-1.01c.26-.28.58-.49.96-.64.38-.15.8-.22,1.27-.22.6,0,1.12.13,1.56.38s.76.58.97.99.32.82.32,1.23c0,.39-.11.64-.33.76-.22.12-.54.17-.94.17ZM202.2,89.9h2.8c-.04-.53-.18-.92-.43-1.19s-.57-.39-.98-.39-.7.13-.95.4c-.25.27-.4.66-.45,1.18Z"/>
      <path class="cls-6" d="M207.8,92.61v-6.71c0-.31.07-.54.21-.7.14-.16.32-.24.56-.24s.42.08.57.24c.14.16.22.39.22.71v6.71c0,.31-.07.55-.22.71-.14.16-.33.24-.56.24s-.41-.08-.55-.24c-.14-.16-.21-.4-.21-.7Z"/>
      <path class="cls-6" d="M218.83,91.52c0,.43-.1.79-.31,1.1-.21.3-.51.54-.92.69-.41.16-.9.24-1.48.24s-1.03-.08-1.43-.25-.69-.38-.88-.64c-.19-.25-.28-.51-.28-.77,0-.17.06-.32.18-.44.12-.12.27-.18.46-.18.16,0,.29.04.37.12.09.08.17.19.25.33.16.28.35.48.57.62.22.14.52.2.9.2.31,0,.56-.07.76-.21.2-.14.3-.29.3-.47,0-.27-.1-.47-.31-.59-.21-.12-.54-.24-1.02-.36-.53-.13-.97-.27-1.3-.42-.33-.15-.6-.34-.8-.58s-.3-.53-.3-.88c0-.31.09-.6.28-.88.19-.28.46-.5.82-.66.36-.17.8-.25,1.31-.25.4,0,.76.04,1.08.12s.58.19.8.33c.21.14.38.29.49.46s.17.34.17.5c0,.18-.06.32-.18.44s-.29.17-.51.17c-.16,0-.29-.04-.41-.14s-.24-.23-.38-.41c-.12-.15-.25-.27-.41-.36-.16-.09-.37-.14-.65-.14s-.51.06-.7.18c-.18.12-.28.27-.28.44,0,.16.07.3.2.4s.32.19.55.26c.23.07.55.15.95.25.48.12.87.26,1.18.42.3.16.53.35.69.57.16.22.24.47.24.76Z"/>
      <path class="cls-6" d="M225.28,90.52v2.06c0,.33-.07.57-.22.73-.15.16-.34.24-.58.24s-.42-.08-.57-.24c-.15-.16-.22-.41-.22-.73v-2.46c0-.39-.01-.69-.04-.91-.03-.21-.1-.39-.22-.53-.12-.14-.3-.21-.55-.21-.51,0-.84.17-1,.52s-.24.85-.24,1.5v2.09c0,.32-.07.56-.22.73-.15.16-.34.25-.58.25s-.43-.08-.58-.25c-.15-.17-.22-.41-.22-.73v-4.42c0-.29.07-.51.2-.66.13-.15.31-.23.53-.23s.39.07.53.21.21.34.21.59v.15c.27-.32.55-.56.86-.71.31-.15.65-.23,1.02-.23s.72.08,1,.23c.28.15.51.39.69.7.26-.32.54-.55.84-.71.3-.15.63-.23.99-.23.42,0,.79.08,1.09.25s.53.4.69.71c.13.28.2.72.2,1.32v3.02c0,.33-.07.57-.22.73-.15.16-.34.24-.58.24s-.43-.08-.58-.25c-.15-.17-.22-.41-.22-.73v-2.6c0-.33-.01-.6-.04-.8s-.11-.37-.23-.5c-.12-.14-.31-.2-.57-.2-.2,0-.4.06-.58.18-.18.12-.33.28-.43.49-.11.26-.17.72-.17,1.38Z"/>
      <path class="cls-6" d="M236.19,90.4c0,.46-.07.89-.21,1.28-.14.39-.35.72-.62,1-.27.28-.6.49-.97.64-.38.15-.8.22-1.28.22s-.89-.08-1.26-.23c-.37-.15-.7-.37-.97-.65-.27-.28-.48-.61-.62-1-.14-.38-.21-.81-.21-1.27s.07-.9.21-1.29c.14-.39.35-.72.62-1,.27-.28.59-.49.97-.64.38-.15.8-.22,1.26-.22s.89.08,1.28.23c.38.15.71.37.98.65.27.28.48.61.62,1,.14.38.21.81.21,1.27ZM234.64,90.4c0-.63-.14-1.12-.42-1.47s-.65-.53-1.12-.53c-.3,0-.57.08-.8.24-.23.16-.41.39-.53.69-.12.31-.19.66-.19,1.07s.06.76.18,1.06c.12.3.3.53.53.69.23.16.5.24.81.24.47,0,.84-.18,1.12-.53s.42-.84.42-1.46Z"/>
      <path class="cls-6" d="M243.2,90.4c0,.46-.07.89-.21,1.28-.14.39-.35.72-.62,1-.27.28-.6.49-.97.64-.38.15-.8.22-1.28.22s-.89-.08-1.26-.23c-.37-.15-.7-.37-.97-.65-.27-.28-.48-.61-.62-1-.14-.38-.21-.81-.21-1.27s.07-.9.21-1.29c.14-.39.35-.72.62-1,.27-.28.59-.49.97-.64.38-.15.8-.22,1.26-.22s.89.08,1.28.23c.38.15.71.37.98.65.27.28.48.61.62,1,.14.38.21.81.21,1.27ZM241.65,90.4c0-.63-.14-1.12-.42-1.47s-.65-.53-1.12-.53c-.3,0-.57.08-.8.24-.23.16-.41.39-.53.69-.12.31-.19.66-.19,1.07s.06.76.18,1.06c.12.3.3.53.53.69.23.16.5.24.81.24.47,0,.84-.18,1.12-.53s.42-.84.42-1.46Z"/>
      <path class="cls-6" d="M244.5,87.39h.17v-.93c0-.25,0-.44.02-.59.01-.14.05-.26.11-.37.06-.11.15-.19.26-.26.11-.07.24-.1.38-.1.2,0,.37.07.53.22.11.1.17.22.2.36s.04.34.04.6v1.05h.57c.22,0,.39.05.5.16.12.1.17.24.17.4,0,.21-.08.35-.25.44s-.4.12-.71.12h-.29v2.84c0,.24,0,.43.03.56.02.13.06.24.14.32.07.08.19.12.36.12.09,0,.21-.02.37-.05.15-.03.28-.05.36-.05.12,0,.24.05.34.15s.15.22.15.37c0,.25-.14.44-.41.57-.27.13-.66.2-1.17.2-.48,0-.85-.08-1.1-.24-.25-.16-.41-.39-.49-.67s-.12-.67-.12-1.15v-2.97h-.2c-.22,0-.39-.05-.51-.16s-.18-.24-.18-.4.06-.29.18-.4c.12-.1.3-.16.54-.16Z"/>
      <path class="cls-6" d="M250.04,85.9v2.29c.2-.23.39-.41.58-.54.19-.13.39-.23.62-.3s.47-.1.73-.1c.39,0,.74.08,1.04.25.3.17.54.41.72.72.11.19.18.39.22.62.04.23.06.49.06.79v2.96c0,.31-.07.54-.21.7-.14.16-.33.24-.56.24-.51,0-.76-.31-.76-.94v-2.61c0-.49-.07-.88-.22-1.14-.15-.27-.43-.4-.84-.4-.28,0-.52.08-.75.24-.22.16-.39.37-.5.64-.08.23-.12.64-.12,1.23v2.04c0,.31-.07.54-.21.7-.14.16-.33.24-.58.24-.51,0-.76-.31-.76-.94v-6.71c0-.31.07-.55.2-.71.13-.16.32-.24.56-.24s.44.08.58.24c.14.16.21.39.21.7Z"/>
    </g>
    <g>
      <path class="cls-5" d="M33.92,13.42s17.86,3.47,19.95,2.93,10.27-2.48,11.66-1.43,4.45,4.15,4.45,4.15l2.48,8.95-.54,10.89-3.29,6.38-6.45,5.26,4.73,26.11.31,3.26-.85,8.44s-2.74,3.49-3.33,3.43-6.78,2.85-6.89,2.47-4.05-2.69-4.65-2.92-2.27-.75-2.79-.77-3.67-.02-4.19,0-1.3.65-1.63.94-2.67,1.33-3.04,1.67-.63,2.74-2.07,2.63-6.56-1.78-7.3-1.74-4.3-1.27-5.33-1.41-4.41-2.7-4.7-2.99-2.52-3.63-2.78-4.11-1.81-6.48-1.81-6.48c0,0-.56-3.41-.33-3.74s4.48-6.61,4.85-6.77.89-4.24.89-4.81.07-5.09.07-5.09c0,0,1.74-18.25,1.74-19.07s-3.99-14.63-3.03-15.72,5.23-8.65,6.58-9.1,7.31-1.35,7.31-1.35Z"/>
      <g>
        <path class="cls-2" d="M38.21.35c-1.5.43-2.72,1.42-3.85,2.49-.18.26-.44.29-.73.25-2.52,1.13-5.02,2.28-7.27,3.93-3.55,2.6-6.53,5.68-8.41,9.67-1.53,3.25-2.84,6.62-3.17,10.26-.05.83-.11,1.65-.16,2.48.02,3.32.5,6.58,1.44,9.77.08.25.17.5.25.75,1.09,2.54,2.29,5.03,3.93,7.28.36.5.31.74-.34.85-1.9.33-3.73.93-5.58,1.47-.08.01-1.94.36-2.08.95-.32,1.32-4.05,2.52-4.47,2.74-2.07,1.05-4.2,2-6.05,3.45-2.12,1.66-2.28,3.57-.48,5.54,3.16,2.09,4.05,2.46,5.99,3.1,3.25,1.07,6.58,1.86,9.96,2.36.97.14.91.38.68,1.07-.38,1.13-.99,1.98-2.08,2.65-2.8,1.71-6.18,2.64-8.46,5.02-.43.45-.37,1.11-.31,1.68.13,1.24,1.19,2.07,2.18,2.82,1.74,1.31,3.67,2.3,5.59,3.3.37.19.91.3.71.92-.38,1.16-.53,1.98-.48,3.57,0,.16.22,2.59.53,3.77.22.82,1.09,1.73.46,2.4-.51.55-1.59.6-2.43.82-.11.03-.18.09-.24.17-.93,1.12-.81,1.79.71,2.25,1.67.51,3.39.88,5.09,1.31,4.03.69,6.84,1,9.88,1.11.32.02.64.04.96.06,3.32.14,6.64.29,9.96.41,3.04.11,4.04.3,10.58.3,4.98-.44,9.97-.42,14.96-.68,1.31-.09,3.47-.2,9.89-.96,1.91-.45,3.84-.82,5.71-1.37.89-.26,2.22-.36,1.82-1.96-.09-.34.28-.32.5-.33,1.26-.08,2.41-.53,3.54-1.06.27-.11.68-.39.77-.46.08-.07.16-.15.24-.22h.01c.07-.1.15-.18.22-.26,1.2-1.38,1.84-3,1.95-4.82,0-.17,0-.33.01-.5-.16-.98-.18-1.79,1.01-2.29.86-.35,1.09-1.33,1.1-2.26.02-1.32-.02-2.64.04-3.96.06-1.24-.41-2.21-1.42-2.85-.67-.43-.85-.96-.81-1.68.03-.52.03-1.04.02-1.56-.04-4.03-2.05-6.53-6.01-7.35-.78-.16-.87-.59-.87-1.21-.02-2.1-.3-4.21.11-6.31.25-.41.88-.42.98-.97.44-2.35.26-3.86-2.31-4.33-1.23-.22-1.32-.72-.81-1.65.09-.36.11-.75,0-1.21-.56-2.27-2.39-3.03-4.35-3.62-2.88-.66-4.68-.56-5.18-.42-.95.2-1.9.47-2.84-.03-.33-.45.02-.77.25-1.06,1.45-1.84,2.4-3.97,3.28-6.09.61-1.47.63-3.2.85-4.82.24-1.83.22-3.68.18-5.53-.12-1.24-.55-3.64-.58-3.76-1.14-4.78-3.01-9.21-6.23-12.99-.4-.46-.2-.7.08-1.09,2.54-3.53,1.97-7.67-1.35-10.1-3.44-2.51-8.17-1.8-10.69,1.61-.16.22-.3.62-.6.47-1.03-.53-6.72-1.89-8.26-1.88-.26,0-.57-.1-.79-.25-1.75-1.18-3.82-2.01-6.76-1.16ZM79.26,64.1c0,.08-.02.16-.01.25.1,2.02.32,1.99-1.68,1.77-.68-.08-1.35-.13-2.03-.16-.49-.02-.72-.21-.71-.73.03-1.88.03-3.76.03-5.64,0-.6.27-.87.88-.84.96.05,1.92.09,2.88.1.5,0,.75.19.74.7-.03,1.52.06,3.03-.09,4.55ZM23.74,33.5c.1-3.81.97-7.08,3.02-9.94,3.15-4.37,7.25-6.89,12.86-6.24,3.89.45,7.02,2.4,9.79,5.04,1.14,1.09,1.95,2.45,2.96,3.64,1.87,2.2,3.91,2.2,5.79,0,.79-.92,1.28-2.04,1.82-3.11.69-1.37,1.49-2.66,2.48-3.84,2-2.4,5.34-2.73,6.9,1.03,1.11,2.69,1.94,5.45,2.3,8.33.9,7.09-.42,13.55-5.66,18.77-2.61,2.6-5.83,4.39-8.94,6.31-1.37.85-2.74,1.7-3.81,2.92-.4.46-.63.39-1.07.06-1.47-1.14-3.11-2-4.85-2.65-5.56-2.1-11.15-4.14-16.95-5.53-.43-.1-.83-.23-1.13-.62-3.29-4.29-5.34-9.04-5.52-14.2ZM53.89,66.75c.15,4.96-.41,9.79-2.37,14.41-.22.51-.42.73-.99.82-4.8.72-9.62.66-14.45.58-2.37-.04-4.71-.46-7.05-.74-1.98-.24-3.92-1.03-5.81-1.81-2.23-.93-4.41-1.93-6.42-3.3-.79-.54-1.05-.97-.4-1.89,1.31-1.88,2.39-3.92,3.04-6.13.25-.87.69-1.17,1.54-1.14,1.25.05,2.48-.16,3.71-.41.41-.08.78-.3.69-.82-.09-.48-.46-.64-.9-.61-.64.04-1.3.04-1.92.19-.8.19-1.07,0-1.03-.85.26-5.03-.77-9.83-2.84-14.41-.22-.48-.21-.74.37-.83,3.08-.46,6.15-1.31,9.3-.41,1.2.34,2.41.67,3.63.88.85.15,1.33.61,1.77,1.28,2.61,3.94,5.64,7.52,9.17,10.67,1.29,1.15,2.26,1.19,3.4.1,1.01-.96,1.97-1.99,2.85-3.08,1.44-1.78,2.98-1.64,3.93.46.21.47.33,1,.37,1.51.16,1.84.28,3.69.41,5.53ZM17.46,78.83c4.65,2.84,9.61,4.23,14.81,4.84,6.39.75,12.76.42,19.14-.16.73-.07,1.06-.48,1.28-1.08.3-.81.6-1.62.99-2.66.43.93.79,1.59,1.06,2.29.35.93.88,1.15,1.86.89,3.16-.84,6.22-1.91,8.97-3.72.27-.18.56-.61.94-.35.33.23.16.67.13,1.02-.08,1.2-.25,2.4-.31,3.6-.24,5.03-2.98,7.8-7.7,9.22-2.78.83-4.94-.01-7.14-1.37-.62-.38-.49-.62.15-.8.53-.16,1-.45.74-1.13-.26-.7-.8-.5-1.31-.33-2.11.67-4.25.93-6.4.3-.85-.25-1.5-.38-1.57.8-.02.32-.3.45-.52.62-1.24.98-2.6,1.77-4.13,2.17-3.32.87-6.67,1-10.02.24-3.15-.71-6.03-1.97-8.15-4.55-2.32-2.82-2.93-6.12-2.81-9.83ZM84.27,81.84c0,2.57.05,5.15-.01,7.72-.08,3.16-2.16,5.06-5.32,4.88-1.88-.11-3.76-.34-5.64-.52-.31-.03-.67.05-.76-.4-.57-2.81-2.77-3.88-5.13-4.71-.65-.23-.67-.47-.49-1.03.99-3.14,1.29-6.38,1.2-9.64-.03-1.22.3-2.11,1.2-2.82.67-.53.88-1.18.84-2.01-.1-1.8-.12-3.61-.24-5.42-.04-.66.13-.81.79-.75,2.44.23,4.89.37,7.33.58,4.07.35,6.16,2.57,6.24,6.65.04,2.49,0,4.98,0,7.48ZM64.35,50.66c.35.13.36.44.44.7,2.4,7.43,3.53,15.07,3.84,22.85.02.6-.24,1-.63,1.35-3.28,2.91-7.18,4.61-11.32,5.84-.44.13-.58-.12-.72-.42-.87-1.79-2.01-3.52-1.02-5.66.18-.38.16-.86.21-1.3.47-3.97.22-7.94.04-11.91-.06-1.27-.19-2.48-.88-3.57-.26-.42-.22-.74.12-1.06.38-.36.72-.07.95.15.77.74,1.52,1.51,2.22,2.31,1.41,1.61,2.81,1.44,3.88-.45,1.26-2.24,1.94-4.66,2.34-7.17.09-.58.06-1.2.53-1.66ZM35.68,51.36c1.45.47,2.64.81,3.8,1.25,3.15,1.21,6.4,2.15,9.4,3.73.52.27.76.34.22.97-1.16,1.34-2.65,2.32-3.72,3.73-.49.65-1.01.45-1.52-.05-1.64-1.6-3.26-3.22-4.72-4.99-1.17-1.42-2.39-2.8-3.45-4.65ZM16.94,86.48c1.95,3.82,4.81,6.2,8.56,7.55.67.24,1.23.58,1.2,1.44-.03.87-.11,1.73-.96,2.2-.74.42-1.57.69-2.43.52-2.29-.45-4.09-1.67-5.19-3.73-1.28-2.4-1.55-5.01-1.18-7.97ZM20.03,63.02c.03,3.25.03,3.21-2.31,3.24-.94.02-1.24-.2-1.18-1.19.23-4.35-.54-8.54-2.17-12.58-.17-.43-.89-1.22.23-1.37.85-.11,1.87-1.37,2.63.25,1.81,3.83,2.66,7.88,2.81,11.64ZM84.18,94.14c1.65-1.86,1.66-4.06,1.65-6.29-.03-4.05-.05-8.11,0-12.16.03-2.82,0-5.59-2.75-7.63,3.58.68,5.17,2.39,5.5,5.7.07.68.01,1.36.06,2.04.04.61-.08,1.07-.68,1.38-.75.39-1.01,1.1-1,1.92.01,1.97,0,3.93.02,5.9.01.87.27,1.68,1.11,2.13.41.23.53.53.54.97,0,.89-.05,1.77-.26,2.63-.46,1.84-2.23,3.33-4.15,3.41ZM58.7,94.43c2.44-.89,4.63-1.6,6.25-3.19.83-.81,1.56-.8,2.43-.42.77.33,1.53.72,2.21,1.19.61.42,1.28.94,1.12,1.83-.17.92-.95,1.2-1.73,1.46-3.43,1.13-6.69.38-10.29-.87ZM55.07,6.92c0-2.98,2.41-5.34,5.48-5.38,3.42-.04,6.15,2.52,6.15,5.76,0,2.91-2.47,5.32-5.42,5.3-3.53-.03-6.21-2.48-6.21-5.68ZM40.85,13.02c-3.85.15-7.54-4.2-5.82-7.87.95-2.03,2.45-3.18,4.57-3.42,2.3-.27,4.48.37,5.98,2.16,1.48,1.78,2.02,3.96.83,6.17-1.18,2.17-3.21,2.89-5.55,2.96ZM69.96,56.93c.06,1.5-.09,2.65-.36,3.79-.06.27-.19.59-.53.55-.31-.04-.24-.37-.28-.59-.32-1.9-.73-3.78-1.27-5.63-.48-1.66-.93-3.32-1.43-4.97-.35-1.15.6-1.59,1.22-1.94.66-.36.64.59.83.97,1.28,2.56,1.83,5.3,1.81,7.82ZM20.26,16.35c-.08-.09-.16-.19-.23-.28.78-.64.9-1.78,1.78-2.31,3.38-2,6.78-3.97,10.29-5.74.32-.16.84-.66,1.01.13.12.51.53,1.1-.4,1.48-3.01,1.23-5.78,2.93-8.61,4.5-1.29.72-2.56,1.47-3.84,2.21ZM62.17,52.27c-.36,2.53-1.06,4.71-2.29,6.72-.35.56-.6.44-.98,0-.73-.85-1.49-1.68-2.32-2.43-.49-.45-.43-.7.06-.99,1.78-1.07,3.57-2.13,5.54-3.3ZM88.46,82.1c0-.96,0-1.93,0-2.89,0-.27-.06-.56.31-.69.83-.29,2.03.49,2.06,1.4.03,1.28.02,2.57.02,3.85,0,1.28-.39,1.66-1.67,1.83-.51.07-.74-.05-.72-.61.03-.96,0-1.93,0-2.89ZM77.77,57.32c-.07-.1-.13-.21-.2-.31.42-.34.87-.66,1.26-1.04.87-.86,2.55-1.06,3.6-.44.69.41.44,1.04.48,1.6.03.45-.29.49-.64.47-1.5-.1-2.99-.19-4.49-.29ZM43.23,92.64c.68-1.05,1.25-2.09,2.71-1.57.57.2,1.28.14,1.9.06.85-.11,1.46.25,2.02.78.16.15.46.26.34.55-.12.27-.41.18-.63.18-2.11,0-4.23,0-6.34,0ZM50.82,5.03s0-.02,0-.03c.76.05,1.52.09,2.27.14.82.05.38.62.37.98,0,.39.02.82-.66.61-1.09-.34-2.25-.32-3.32,0-1.19.35-1.04-.55-1.17-1.1-.21-.91.59-.51.95-.57.51-.08,1.04-.02,1.55-.02ZM81.68,62.77c0,1,0,2.01,0,3.01,0,.29-.03.6-.4.62-.37.02-.45-.26-.45-.57,0-2.05,0-4.09.01-6.14,0-.28.01-.61.4-.62.49-.01.44.38.44.69,0,1,0,2.01,0,3.01ZM70.6,62.11c.41-.06.41.19.4.44-.02.8-.05,1.61-.07,2.41,0,.33-.13.55-.48.56-.31,0-.77.15-.89-.17-.25-.64-.59-1.37-.36-2.03.2-.6.9-.87,1.4-1.22ZM73.25,62.89s0,0,0,0c0,.8,0,1.6,0,2.4,0,.26-.09.48-.41.47-.24-.01-.37-.18-.38-.39,0-1.56,0-3.12.03-4.67,0-.25.19-.49.45-.48.43.01.31.39.32.64.02.68,0,1.36,0,2.04Z"/>
        <path class="cls-4" d="M53.89,66.75c-.13-1.84-.25-3.69-.41-5.53-.05-.51-.16-1.04-.37-1.51-.95-2.1-2.49-2.24-3.93-.46-.88,1.09-1.84,2.12-2.85,3.08-1.14,1.09-2.11,1.06-3.4-.1-3.52-3.15-6.55-6.74-9.17-10.67-.44-.67-.93-1.13-1.77-1.28-1.22-.21-2.43-.54-3.63-.88-3.15-.9-6.21-.05-9.3.41-.58.09-.59.35-.37.83,2.07,4.58,3.09,9.37,2.84,14.41-.04.84.23,1.04,1.03.85.62-.15,1.28-.15,1.92-.19.44-.03.81.13.9.61.09.52-.28.74-.69.82-1.22.25-2.45.46-3.71.41-.85-.04-1.28.27-1.54,1.14-.65,2.21-1.73,4.25-3.04,6.13-.65.93-.39,1.35.4,1.89,2,1.37,4.19,2.37,6.42,3.3,1.88.79,3.82,1.57,5.81,1.81,2.34.29,4.68.71,7.05.74,4.83.08,9.65.13,14.45-.58.57-.09.78-.31.99-.82,1.96-4.61,2.52-9.45,2.37-14.41ZM28.22,66.94s.07,0,.1,0c0-1.13.04-2.25,0-3.38-.05-1.14.4-1.62,1.58-1.47,2.95.38,5.91.7,8.86,1.05.84.1,1.29.49,1.22,1.43-.2,2.48-.32,4.97-.52,7.46-.11,1.41-1.01,2.23-2.29,2.66-1.97.65-3.89.34-5.78-.36-2.37-.87-3.54-2.52-3.27-5.11.08-.76.07-1.52.11-2.29ZM51.97,73.48c.01,1.24-.94,2.3-2.09,2.34-1.15.03-2.21-1.01-2.25-2.21-.04-1.17,1.01-2.25,2.18-2.25,1.16,0,2.15.97,2.16,2.12ZM50.42,67.99c-1.17.02-2.29-1.03-2.29-2.16,0-1.22,1-2.25,2.19-2.26,1.21-.01,2.16.9,2.19,2.09.03,1.25-.92,2.31-2.09,2.34Z"/>
        <path class="cls-1" d="M84.27,81.84c0-2.49.04-4.99,0-7.48-.07-4.08-2.17-6.3-6.24-6.65-2.44-.21-4.89-.35-7.33-.58-.66-.06-.83.09-.79.75.11,1.8.13,3.61.24,5.42.05.83-.17,1.48-.84,2.01-.9.71-1.24,1.6-1.2,2.82.09,3.26-.21,6.51-1.2,9.64-.18.56-.16.8.49,1.03,2.36.83,4.57,1.9,5.13,4.71.09.45.46.37.76.4,1.88.18,3.76.42,5.64.52,3.16.18,5.25-1.73,5.32-4.88.06-2.57.01-5.15.01-7.72ZM79.63,81.41c-.03,2.96-2.54,5.6-5.77,5.16-2.17-.3-4.04-2.05-4.68-4.46-1.16-4.33,2.1-8.16,6.1-7.16,2.64.66,4.51,3.42,4.36,6.45Z"/>
        <path class="cls-4" d="M64.35,50.66c-.47.45-.44,1.08-.53,1.66-.4,2.51-1.09,4.93-2.34,7.17-1.06,1.89-2.47,2.06-3.88.45-.7-.8-1.45-1.57-2.22-2.31-.23-.22-.57-.51-.95-.15-.35.32-.39.65-.12,1.06.69,1.09.82,2.3.88,3.57.18,3.97.43,7.94-.04,11.91-.05.44-.04.92-.21,1.3-.99,2.14.15,3.87,1.02,5.66.15.3.28.55.72.42,4.14-1.24,8.05-2.93,11.32-5.84.4-.35.66-.75.63-1.35-.31-7.78-1.44-15.42-3.84-22.85-.08-.26-.09-.57-.44-.7Z"/>
        <path class="cls-4" d="M35.68,51.36c1.06,1.85,2.28,3.23,3.45,4.65,1.46,1.77,3.08,3.39,4.72,4.99.51.5,1.03.7,1.52.05,1.07-1.41,2.57-2.4,3.72-3.73.54-.63.3-.69-.22-.97-3-1.58-6.26-2.52-9.4-3.73-1.15-.44-2.34-.78-3.8-1.25Z"/>
        <path class="cls-6" d="M16.94,86.48c-.37,2.97-.1,5.57,1.18,7.97,1.1,2.06,2.9,3.29,5.19,3.73.86.17,1.69-.1,2.43-.52.85-.48.92-1.34.96-2.2.03-.86-.53-1.19-1.2-1.44-3.75-1.35-6.61-3.72-8.56-7.55Z"/>
        <path class="cls-4" d="M20.03,63.02c-.15-3.76-1-7.81-2.81-11.64-.76-1.62-1.78-.36-2.63-.25-1.12.15-.4.95-.23,1.37,1.63,4.04,2.4,8.23,2.17,12.58-.05.98.25,1.2,1.18,1.19,2.34-.04,2.34.01,2.31-3.24Z"/>
        <path class="cls-1" d="M84.18,94.14c1.92-.08,3.69-1.57,4.15-3.41.22-.86.27-1.74.26-2.63,0-.44-.12-.75-.54-.97-.83-.45-1.09-1.26-1.11-2.13-.03-1.97,0-3.93-.02-5.9,0-.82.26-1.53,1-1.92.61-.32.72-.77.68-1.38-.04-.68,0-1.37-.06-2.04-.32-3.31-1.92-5.02-5.5-5.7,2.74,2.05,2.78,4.81,2.75,7.63-.04,4.05-.03,8.11,0,12.16.02,2.23,0,4.42-1.65,6.29Z"/>
        <path class="cls-6" d="M58.7,94.43c3.59,1.25,6.86,2,10.29.87.78-.26,1.57-.54,1.73-1.46.16-.89-.51-1.41-1.12-1.83-.68-.47-1.45-.86-2.21-1.19-.87-.38-1.6-.39-2.43.42-1.63,1.59-3.81,2.3-6.25,3.19Z"/>
        <path class="cls-1" d="M55.07,6.92c0,3.19,2.68,5.65,6.21,5.68,2.96.02,5.42-2.38,5.42-5.3,0-3.24-2.73-5.79-6.15-5.76-3.07.03-5.48,2.39-5.48,5.38ZM56.23,6.91c-.02-1.95,1.32-4.24,4.5-4.31,2.69-.06,4.83,2.05,4.8,4.63-.03,2.4-2.04,4.28-4.58,4.27-2.6,0-4.73-2.08-4.72-4.6Z"/>
        <path class="cls-1" d="M40.85,13.02c2.34-.07,4.37-.79,5.55-2.96,1.2-2.21.66-4.39-.83-6.17-1.49-1.79-3.67-2.43-5.98-2.16-2.12.25-3.61,1.39-4.57,3.42-1.72,3.67,1.97,8.02,5.82,7.87ZM40.35,2.53c3.23-.01,5.65,2.09,5.68,4.93.03,2.78-2.19,4.82-5.23,4.8-2.84-.01-5.24-2.39-5.26-5.21-.02-2.45,2.17-4.52,4.81-4.53Z"/>
        <path class="cls-4" d="M69.96,56.93c.01-2.52-.53-5.26-1.81-7.82-.19-.38-.17-1.33-.83-.97-.63.34-1.58.79-1.22,1.94.51,1.65.95,3.31,1.43,4.97.54,1.85.95,3.73,1.27,5.63.04.21-.03.55.28.59.35.04.47-.28.53-.55.26-1.14.42-2.29.36-3.79Z"/>
        <path class="cls-1" d="M19.97,16.35c.05.08.17.09.25.04,1.23-.71,2.64-1.57,3.89-2.26,2.83-1.57,5.6-3.27,8.61-4.5.92-.38.51-.97.4-1.48-.18-.79-.7-.29-1.01-.13-3.51,1.78-6.91,3.74-10.29,5.74-.83.49-1.16,1.66-1.83,2.32-.07.07-.04.21,0,.27Z"/>
        <path class="cls-4" d="M62.17,52.27c-1.97,1.17-3.76,2.23-5.54,3.3-.49.3-.55.55-.06.99.83.75,1.59,1.58,2.32,2.43.38.44.64.56.98,0,1.24-2.01,1.93-4.2,2.29-6.72Z"/>
        <path class="cls-5" d="M88.46,82.1c0,.96.02,1.93,0,2.89-.02.56.21.68.72.61,1.28-.16,1.66-.55,1.67-1.83,0-1.28.02-2.57-.02-3.85-.02-.91-1.22-1.69-2.06-1.4-.37.13-.31.42-.31.69,0,.96,0,1.93,0,2.89Z"/>
        <path class="cls-3" d="M77.77,57.32c1.5.1,2.99.19,4.49.29.35.02.67-.02.64-.47-.04-.56.21-1.19-.48-1.6-1.04-.62-2.73-.42-3.6.44-.38.38-.84.69-1.26,1.04.07.1.13.21.2.31Z"/>
        <path class="cls-3" d="M43.23,92.64c2.11,0,4.23,0,6.34,0,.22,0,.52.09.63-.18.13-.29-.17-.4-.34-.55-.57-.54-1.17-.9-2.02-.78-.63.08-1.33.14-1.9-.06-1.46-.51-2.03.53-2.71,1.57Z"/>
        <path class="cls-1" d="M49.09,4.96c-.46.02-1.26-.14-1.05.63.17.6-.02,1.61,1.29,1.22,1.18-.35,2.46-.38,3.66,0,.76.24.72-.24.73-.67,0-.39.5-1.02-.41-1.08-.84-.05-3.66-.13-4.23-.1Z"/>
        <path class="cls-3" d="M81.68,62.77c0-1,0-2.01,0-3.01,0-.31.05-.7-.44-.69-.39,0-.4.34-.4.62-.01,2.05-.01,4.09-.01,6.14,0,.31.08.59.45.57.38-.02.4-.33.4-.62,0-1,0-2.01,0-3.01Z"/>
        <path class="cls-3" d="M70.6,62.11c-.5.34-1.2.62-1.4,1.22-.23.66.11,1.38.36,2.03.12.32.58.17.89.17.35,0,.47-.23.48-.56.02-.8.05-1.61.07-2.41,0-.25.01-.5-.4-.44Z"/>
        <path class="cls-3" d="M73.25,62.89c0-.68.01-1.36,0-2.04,0-.25.11-.63-.32-.64-.26,0-.44.24-.45.48-.03,1.56-.03,3.12-.03,4.67,0,.21.14.38.38.39.32.01.41-.21.41-.47,0-.8,0-1.6,0-2.4,0,0,0,0,0,0Z"/>
        <path class="cls-3" d="M87.97,94.26c.07-.08.15-.17.22-.25-.07.08-.15.17-.22.25Z"/>
        <path class="cls-3" d="M87.72,94.5c.08-.07.16-.15.24-.22-.08.07-.16.15-.24.22Z"/>
        <path class="cls-2" d="M56.39,41.05c1.62.02,3.39-.85,4.88-2.29.53-.51,1.06-.96,1.79-1.13.87-.2,1.04-.78.57-1.43-3.46-4.8-9.51-6.66-14.05-1.49-.66.75-.72,1.42-.23,2.28,1.44,2.51,3.78,3.99,7.04,4.07ZM61.53,36.4c-2.86.39-5.56.58-8.24-.16-.45-.13-1.1-.06-1.22-.59-.13-.6.28-1.1.76-1.49.38-.3.81-.5,1.28-.64,2.68-.79,5.75.36,7.42,2.87Z"/>
        <path class="cls-2" d="M38.39,31.81c-.09,1.2.43,2.29,1.2,3.24,1.62,2,4.58,1.81,5.9-.38,1.08-1.79,1.11-3.65.1-5.49-.79-1.43-2.01-2.19-3.66-2.05-1.55.14-2.53,1.1-3.14,2.48-.29.67-.43,1.38-.41,2.19ZM42.31,30.49c.04-.6.25-1.14,1.03-1.15.71,0,.98.51,1.01,1.11.04.65-.38,1.14-.97,1.16-.58.02-1.05-.37-1.07-1.13Z"/>
        <path class="cls-2" d="M69.19,30.69c0-1.21-.25-2.57-1.39-3.6-1.05-.95-2.36-.9-3.3.14-1.83,2.01-1.77,5.56.13,7.48.94.95,2.25.94,3.2-.03.88-.9,1.32-2.1,1.35-3.98ZM66.03,30.2c.07-.48.17-1,.78-1.02.62-.02.97.38.97.98,0,.57-.26,1.05-.91,1.05-.6,0-.74-.51-.85-1Z"/>
        <path class="cls-1" d="M40.03,38.51c-1.72,0-3.06.99-3.03,2.24.03,1.24,1.38,2.35,2.86,2.38,1.6.02,2.98-1.13,2.97-2.47-.01-1.24-1.2-2.14-2.8-2.15Z"/>
        <path class="cls-1" d="M66.42,41.93c1.33-.01,2.21-.67,2.23-1.68.02-1-1.06-1.92-2.22-1.9-1.27.02-2.36.91-2.39,1.93-.03.98.95,1.66,2.38,1.65Z"/>
        <path class="cls-2" d="M28.22,66.94c-.03.76-.03,1.53-.11,2.29-.28,2.59.9,4.23,3.27,5.11,1.89.69,3.81,1.01,5.78.36,1.28-.42,2.18-1.25,2.29-2.66.2-2.48.32-4.97.52-7.46.08-.94-.38-1.33-1.22-1.43-2.95-.35-5.91-.68-8.86-1.05-1.18-.15-1.62.32-1.58,1.47.05,1.12,0,2.25,0,3.38-.03,0-.07,0-.1,0ZM29.76,69.05c0-.54.03-1.06,0-1.58-.05-.73.21-1.02.97-.92,2.26.3,4.53.59,6.79.85.51.06.71.26.66.76-.1,1.24-.19,2.47-.3,3.71-.04.41-.24.78-.62.98-2.01,1.02-3.97.6-5.91-.21-1.65-.69-1.83-2.06-1.58-3.58ZM37.4,66.26c-2.27-.28-4.53-.58-6.8-.84-.72-.08-.81-.51-.75-1.09.06-.67.49-.6.96-.54,2.26.29,4.53.57,6.8.83.6.07.81.29.76.93-.06.69-.41.78-.96.71Z"/>
        <path class="cls-2" d="M51.97,73.48c-.01-1.15-1-2.13-2.16-2.12-1.18,0-2.22,1.07-2.18,2.25.04,1.2,1.1,2.24,2.25,2.21,1.16-.03,2.11-1.09,2.09-2.34ZM49.27,73.63c.05-.34.16-.65.58-.63.36.02.43.3.42.61-.01.31-.12.57-.48.57-.33,0-.5-.21-.52-.54Z"/>
        <path class="cls-2" d="M50.42,67.99c1.17-.02,2.12-1.09,2.09-2.34-.03-1.19-.99-2.1-2.19-2.09-1.19.01-2.19,1.04-2.19,2.26,0,1.13,1.12,2.19,2.29,2.16ZM50.4,66.28c-.34-.05-.6-.18-.59-.58,0-.32.18-.51.51-.5.32.01.49.22.52.52.03.32-.09.53-.44.56Z"/>
        <path class="cls-2" d="M79.63,81.41c.15-3.03-1.72-5.79-4.36-6.45-4-1-7.26,2.83-6.1,7.16.65,2.41,2.51,4.16,4.68,4.46,3.23.44,5.74-2.21,5.77-5.16ZM70.4,79.67s.05-.19.12-.37c.53-1.56,1.78-2.57,3.24-2.63,1.54-.06,3.15.99,3.81,2.47.24.55.62,1.32.3,1.68-.4.47-1.16,0-1.61-.32-1.3-.94-2.57-1.42-4.05-.37-.3.21-.77.18-1.16.29-.53.16-.78.02-.66-.76ZM71.64,82.7c-.56.15-.82-.17-.99-.62-.25-.67.33-.6.66-.7.72-.24,1.45-.43,2.17-.66.31-.1.61-.19.9.04.84.67,1.87.9,2.86,1.19.89.26.62.72.21,1.11-.45.43-.94.38-1.5,0-1.06-.72-2.18-1.34-3.52-.58-.24.13-.53.16-.8.23ZM76.13,84.29c-1.53.92-3.07.72-4.22-.57,1.56-.97,2.92-.4,4.22.57Z"/>
        <path class="cls-2" d="M56.23,6.91c-.01,2.52,2.12,4.59,4.72,4.6,2.54,0,4.55-1.87,4.58-4.27.03-2.58-2.11-4.69-4.8-4.63-3.18.07-4.52,2.36-4.5,4.31ZM61.13,10.53c-2.18,0-3.82-1.49-3.84-3.47-.02-1.98,1.43-3.36,3.57-3.39,2.12-.03,3.71,1.51,3.7,3.58,0,1.84-1.51,3.28-3.43,3.27Z"/>
        <path class="cls-2" d="M40.35,2.53c-2.64,0-4.83,2.08-4.81,4.53.03,2.82,2.43,5.19,5.26,5.21,3.04.01,5.26-2.02,5.23-4.8-.04-2.85-2.45-4.94-5.68-4.93ZM40.48,3.49c2.53,0,4.49,1.75,4.51,4.04.01,2.06-1.66,3.68-3.8,3.65-2.59-.03-4.55-1.66-4.58-3.82-.03-2.22,1.62-3.86,3.87-3.87Z"/>
        <path class="cls-6" d="M61.53,36.4c-1.67-2.52-4.74-3.66-7.42-2.87-.47.14-.9.33-1.28.64-.48.38-.9.89-.76,1.49.12.53.77.46,1.22.59,2.68.74,5.38.55,8.24.16Z"/>
        <path class="cls-5" d="M42.31,30.49c.02.76.49,1.16,1.07,1.13.6-.02,1.01-.52.97-1.16-.04-.6-.3-1.12-1.01-1.11-.78,0-.99.55-1.03,1.15Z"/>
        <path class="cls-5" d="M66.03,30.2c.11.49.24,1,.85,1,.64,0,.91-.48.91-1.05,0-.6-.35-1-.97-.98-.61.02-.71.54-.78,1.02Z"/>
        <path class="cls-4" d="M29.76,69.05c-.25,1.52-.07,2.89,1.58,3.58,1.94.81,3.9,1.23,5.91.21.39-.2.58-.57.62-.98.12-1.23.2-2.47.3-3.71.04-.49-.15-.7-.66-.76-2.27-.26-4.53-.55-6.79-.85-.76-.1-1.02.2-.97.92.04.52,0,1.04,0,1.58Z"/>
        <path class="cls-4" d="M37.4,66.26c.55.08.9-.01.96-.71.05-.63-.16-.86-.76-.93-2.27-.26-4.53-.55-6.8-.83-.47-.06-.9-.13-.96.54-.05.58.04,1.01.75,1.09,2.27.26,4.53.56,6.8.84Z"/>
        <path class="cls-4" d="M49.27,73.63c.02.33.19.54.52.54.36,0,.47-.26.48-.57.01-.31-.05-.59-.42-.61-.42-.02-.53.29-.58.63Z"/>
        <path class="cls-4" d="M50.4,66.28c.35-.03.47-.24.44-.56-.03-.31-.19-.51-.52-.52-.33-.01-.5.18-.51.5-.01.4.25.53.59.58Z"/>
        <path class="cls-4" d="M71.64,82.7c.27-.07.57-.1.8-.23,1.33-.76,2.46-.15,3.52.58.56.38,1.05.44,1.5,0,.41-.39.67-.84-.21-1.11-.99-.29-2.02-.52-2.86-1.19-.3-.24-.59-.14-.9-.04-.72.23-1.46.42-2.17.66-.33.11-.91.04-.66.7.17.46.43.77.99.62Z"/>
        <path class="cls-4" d="M76.13,84.29c-1.3-.97-2.66-1.54-4.22-.57,1.16,1.29,2.7,1.5,4.22.57Z"/>
        <path class="cls-4" d="M61.13,10.53c1.92,0,3.42-1.43,3.43-3.27,0-2.07-1.58-3.61-3.7-3.58-2.14.03-3.59,1.4-3.57,3.39.02,1.98,1.67,3.47,3.84,3.47ZM60.46,5.9c.13-.4.17-1.18,1.13-1.1.68.05,1.23.29,1.25,1.14.02.85-.51,1.17-1.19,1.16-.56,0-1.26-.06-1.18-1.2Z"/>
        <path class="cls-4" d="M40.48,3.49c-2.25,0-3.9,1.65-3.87,3.87.03,2.16,1.99,3.8,4.58,3.82,2.14.02,3.81-1.59,3.8-3.65-.02-2.28-1.98-4.04-4.51-4.04ZM41.83,7.88c-.79-.07-1.32-.44-1.39-1.23-.06-.73.8-1.43,1.65-1.37.83.06,1.4.55,1.36,1.38-.04.97-.86,1.12-1.63,1.22Z"/>
        <path class="cls-6" d="M52.2,37c2.72.8,5.55,1,8.07,1.03-.53,1.29-5.25,3.19-8.07-1.03Z"/>
      </g>
    </g>
  </g>
</svg>